<svg width="132" height="42" xmlns="http://www.w3.org/2000/svg"><g fill="#FFF" fill-rule="nonzero"><path d="M49.77 17.4c-.24.383-.649.825-1.226 1.327s-1.25.992-2.02 1.47c-.769.478-1.622.932-2.56 1.362-.938.43-1.887.789-2.85 1.076-.192 2.007-.624 4.11-1.298 6.309-.673 2.199-1.49 4.218-2.452 6.058-.962 1.84-2.02 3.346-3.174 4.517-1.154 1.171-2.308 1.757-3.462 1.757-.481 0-1.118-.144-1.912-.43-.793-.287-1.562-.741-2.308-1.363a8.771 8.771 0 01-1.911-2.258c-.53-.884-.794-1.948-.794-3.19 0-1.243.145-2.653.433-4.23a39.46 39.46 0 011.19-4.768 34.157 34.157 0 011.876-4.697c.745-1.53 1.55-2.891 2.416-4.086.866-1.195 1.791-2.151 2.777-2.868.986-.717 2.008-1.076 3.066-1.076.529 0 1.046.18 1.55.538.505.359.998.813 1.48 1.362a14.5 14.5 0 011.334 1.793c.408.645.781 1.23 1.118 1.756l.216 1.65c1.25-.096 2.489-.311 3.715-.646s2.825-.789 4.796-1.362zm-14.065 6.023c-.721-.143-1.082-.86-1.082-2.15 0-.526.06-1.124.18-1.793.12-.67.253-1.362.397-2.08-.673.813-1.358 1.996-2.056 3.55a44.847 44.847 0 00-1.875 4.983 58.928 58.928 0 00-1.37 5.162c-.361 1.673-.542 3.011-.542 4.015 0 1.147.24 1.72.722 1.72.48 0 1.046-.394 1.695-1.182.649-.789 1.286-1.829 1.911-3.12a44.89 44.89 0 001.804-4.337 35.498 35.498 0 001.37-4.84c-.24.048-.469.072-.685.072h-.47z"/><path d="M28.846 22.235c.049.533-.181 1.405-.69 2.616-.508 1.211-1.221 2.543-2.14 3.997a51.402 51.402 0 01-3.23 4.505 38.832 38.832 0 01-3.92 4.25c-1.38 1.285-2.758 2.338-4.138 3.162C13.35 41.588 12.055 42 10.845 42c-1.016 0-2.08-.206-3.194-.618a11.233 11.233 0 01-3.157-1.816 12.595 12.595 0 01-2.613-2.907C1.13 35.521.61 34.225.32 32.772c-.388-1.744-.424-3.755-.11-6.032.315-2.276.908-4.638 1.779-7.084a47.733 47.733 0 013.266-7.194c1.307-2.35 2.734-4.445 4.283-6.286 1.548-1.84 3.181-3.33 4.9-4.468C16.155.569 17.861 0 19.554 0c.726 0 1.585.206 2.577.618.992.411 1.948.956 2.867 1.635.92.678 1.706 1.44 2.36 2.289.652.847.98 1.707.98 2.58 0 1.162-.4 2.554-1.199 4.177a28.87 28.87 0 01-2.903 4.687c-1.137 1.502-2.31 2.774-3.52 3.815-1.21 1.042-2.226 1.562-3.049 1.562.484-.678 1.004-1.562 1.56-2.652.557-1.09 1.102-2.265 1.634-3.524a56.077 56.077 0 001.452-3.815c.435-1.284.75-2.434.943-3.452.194-1.017.23-1.853.109-2.507-.121-.653-.472-.98-1.052-.98-1.694 0-3.448.823-5.263 2.47-1.814 1.647-3.508 3.718-5.08 6.213a47.82 47.82 0 00-4.066 8.102c-1.137 2.907-1.875 5.607-2.213 8.102-.34 2.495-.182 4.566.471 6.213.654 1.647 1.972 2.47 3.956 2.47 1.065 0 2.42-.557 4.065-1.67 1.645-1.115 3.363-2.484 5.154-4.106a87.345 87.345 0 005.226-5.16c1.693-1.816 3.12-3.427 4.282-4.832zM58.962 12.495c.193 0 .506.095.94.284.433.19.903.438 1.409.745.506.308.975.651 1.409 1.03.434.378.747.78.94 1.207-.386.662-.88 1.644-1.482 2.946a82.071 82.071 0 00-1.879 4.437 82.786 82.786 0 00-1.843 5.218 38.425 38.425 0 00-1.3 5.36 40.63 40.63 0 002.348-2.91 63.106 63.106 0 002.385-3.444 68.087 68.087 0 002.023-3.337c.602-1.064 1.024-1.928 1.265-2.59.385.046.53.508.433 1.384-.096.875-.36 1.94-.794 3.194a52.403 52.403 0 01-1.626 4.082 45.8 45.8 0 01-2.024 4.047c-.698 1.23-1.385 2.26-2.06 3.088-.674.829-1.228 1.243-1.661 1.243-.434 0-.964-.154-1.59-.462a11.85 11.85 0 01-1.807-1.1 9.026 9.026 0 01-1.48-1.349c-.41-.473-.615-.876-.615-1.207 0-.757.108-1.656.325-2.698.217-1.041.494-2.153.831-3.336.337-1.184.735-2.39 1.192-3.621.458-1.23.904-2.438 1.337-3.62-.867 1.23-1.806 2.744-2.818 4.543a118.808 118.808 0 00-2.89 5.466 98.115 98.115 0 00-2.385 5.147c-.675 1.586-1.108 2.781-1.3 3.586-.386 0-.832-.19-1.338-.568a9.552 9.552 0 01-1.445-1.35 9.208 9.208 0 01-1.156-1.632c-.313-.568-.47-1.041-.47-1.42 0-1.23.145-2.674.434-4.33a66.25 66.25 0 011.12-5.148c.457-1.775.963-3.538 1.517-5.289a94.872 94.872 0 011.59-4.65c.506-1.349.976-2.45 1.41-3.301.433-.852.77-1.278 1.01-1.278.434 0 .916.083 1.446.249.53.165 1.036.355 1.518.567.481.213.903.45 1.264.71.361.26.614.486.759.675-.29.426-.662 1.112-1.12 2.059a50.266 50.266 0 00-1.482 3.443 104.033 104.033 0 00-1.662 4.579 72.267 72.267 0 00-1.59 5.396 68.082 68.082 0 012.963-5.715 70.837 70.837 0 013.252-5.148c1.06-1.514 2.024-2.756 2.89-3.727.868-.97 1.47-1.455 1.807-1.455z"/><path d="M62.325 9.646c-1.084-.095-1.92-.428-2.508-1-.59-.57-.79-.975-.6-1.213.941-.047 2.166-.13 3.673-.25 1.507-.118 3.792-.225 6.853-.32.707-1.856 1.343-3.343 1.908-4.462.565-1.118.966-1.677 1.201-1.677.377 0 .824.083 1.342.25.519.166 1.025.38 1.52.642.494.262.942.524 1.342.785.4.262.648.488.742.679-.236.237-.53.654-.883 1.249-.354.594-.742 1.368-1.166 2.32 2.59-.048 4.875-.06 6.853-.036 1.978.023 3.25.154 3.815.392.236.095.46.31.672.643.212.333.388.69.53 1.07.14.38.247.75.317 1.107.071.356.083.606.036.749-.471-.143-1.154-.274-2.05-.393a34.598 34.598 0 00-3.143-.25c-1.201-.047-2.52-.095-3.957-.142a131.253 131.253 0 00-4.345-.072 191.553 191.553 0 00-2.084 5.71 335.703 335.703 0 00-2.155 6.389 183.06 183.06 0 00-1.978 6.46 144.486 144.486 0 00-1.555 5.852c.801-.857 1.649-1.868 2.544-3.034a99.48 99.48 0 002.543-3.461 62.678 62.678 0 002.12-3.212c.612-1 1.036-1.808 1.272-2.427.47.095.624.607.459 1.535-.165.928-.542 2.081-1.13 3.461a58.284 58.284 0 01-2.156 4.461 56.488 56.488 0 01-2.578 4.39c-.872 1.332-1.684 2.45-2.438 3.355-.754.904-1.319 1.356-1.696 1.356-.188 0-.518-.179-.989-.536-.47-.356-.942-.82-1.413-1.391a12.702 12.702 0 01-1.236-1.785c-.353-.618-.507-1.166-.46-1.641.189-1.713.53-3.652 1.025-5.818a115.758 115.758 0 011.731-6.637 171.79 171.79 0 012.12-6.745 217.445 217.445 0 012.19-6.21H64.303c-.424 0-.777-.012-1.06-.036-.282-.024-.589-.06-.918-.107z"/><path d="M98.098 17.4c-.24.383-.649.825-1.226 1.327s-1.25.992-2.02 1.47c-.769.478-1.622.932-2.56 1.362-.938.43-1.888.789-2.85 1.076-.192 2.007-.625 4.11-1.298 6.309s-1.49 4.218-2.452 6.058c-.962 1.84-2.02 3.346-3.174 4.517-1.154 1.171-2.308 1.757-3.462 1.757-.481 0-1.118-.144-1.912-.43-.793-.287-1.563-.741-2.308-1.363a8.771 8.771 0 01-1.911-2.258c-.53-.884-.794-1.948-.794-3.19 0-1.243.144-2.653.433-4.23a39.46 39.46 0 011.19-4.768 34.157 34.157 0 011.876-4.697c.745-1.53 1.55-2.891 2.416-4.086.865-1.195 1.791-2.151 2.777-2.868.986-.717 2.008-1.076 3.066-1.076.528 0 1.045.18 1.55.538.505.359.998.813 1.479 1.362a14.5 14.5 0 011.334 1.793l1.118 1.756.217 1.65c1.25-.096 2.488-.311 3.715-.646 1.226-.335 2.825-.789 4.796-1.362zm-14.065 6.023c-.722-.143-1.082-.86-1.082-2.15 0-.526.06-1.124.18-1.793.12-.67.253-1.362.397-2.08-.673.813-1.359 1.996-2.056 3.55a44.848 44.848 0 00-1.875 4.983 58.928 58.928 0 00-1.37 5.162c-.361 1.673-.542 3.011-.542 4.015 0 1.147.24 1.72.722 1.72.48 0 1.045-.394 1.695-1.182.649-.789 1.286-1.829 1.911-3.12a44.89 44.89 0 001.803-4.337 35.498 35.498 0 001.37-4.84c-.24.048-.468.072-.684.072h-.47z"/><path d="M115.41 15.352c-.822.82-2.044 1.858-3.664 3.114-1.62 1.255-3.447 2.268-5.478 3.04a19.711 19.711 0 01-1.67 2.572c-.58.748-1.112 1.122-1.596 1.122-.435-.193-.761-.603-.98-1.231a10.363 10.363 0 01-.47-2.028 7.929 7.929 0 01-.037-1.991c.073-.603.181-.978.326-1.122.484 0 1.137-.073 1.96-.218.193-.772.278-1.46.254-2.063-.025-.604-.085-1.05-.182-1.34-.387 0-.81.145-1.27.434-.46.29-.919.664-1.378 1.123a6.933 6.933 0 00-1.197 1.63 5.833 5.833 0 00-.653 1.954c-.146.918.012 1.92.471 3.005.46 1.087.992 2.173 1.596 3.26a58.683 58.683 0 011.67 3.221c.507 1.063.737 2.004.689 2.825-.049.579-.279 1.315-.69 2.208a11.85 11.85 0 01-1.669 2.607 10.073 10.073 0 01-2.54 2.173c-.99.603-2.091.905-3.3.905-.92 0-1.754-.471-2.504-1.412-.75-.942-1.366-2.052-1.85-3.331a17.161 17.161 0 01-.98-3.91c-.169-1.328-.133-2.354.11-3.078.483 1.351 1.124 2.51 1.922 3.476.798.965 1.596 1.737 2.395 2.317.798.58 1.523.953 2.176 1.122.653.17 1.1.133 1.343-.108.387-.435.362-1.183-.073-2.245a75.894 75.894 0 00-1.669-3.73 57.588 57.588 0 01-1.923-4.562c-.604-1.617-.882-3.174-.834-4.67.048-1.593.375-2.981.98-4.164.604-1.183 1.293-2.173 2.067-2.97.774-.796 1.56-1.4 2.359-1.81.798-.41 1.439-.615 1.922-.615.484 0 1.137.205 1.96.616.822.41 1.632.905 2.43 1.484.798.58 1.475 1.17 2.032 1.774.556.604.834 1.098.834 1.485 0 .29-.12.796-.363 1.52a71.44 71.44 0 002.431-.615 51.862 51.862 0 002.213-.652c.677-.217 1.27-.422 1.778-.615s.858-.362 1.052-.507z"/><path d="M132 17.4c-.24.383-.65.825-1.226 1.327-.577.502-1.25.992-2.02 1.47s-1.623.932-2.56 1.362c-.938.43-1.888.789-2.85 1.076-.192 2.007-.625 4.11-1.298 6.309s-1.49 4.218-2.453 6.058c-.961 1.84-2.02 3.346-3.173 4.517-1.154 1.171-2.309 1.757-3.463 1.757-.48 0-1.118-.144-1.911-.43-.794-.287-1.563-.741-2.308-1.363a8.771 8.771 0 01-1.912-2.258c-.529-.884-.793-1.948-.793-3.19 0-1.243.144-2.653.433-4.23a39.46 39.46 0 011.19-4.768 34.157 34.157 0 011.875-4.697c.746-1.53 1.551-2.891 2.417-4.086.865-1.195 1.79-2.151 2.777-2.868.985-.717 2.007-1.076 3.065-1.076.53 0 1.046.18 1.551.538.505.359.998.813 1.479 1.362a14.5 14.5 0 011.334 1.793c.409.645.782 1.23 1.118 1.756l.217 1.65c1.25-.096 2.488-.311 3.714-.646 1.227-.335 2.825-.789 4.797-1.362zm-14.066 6.023c-.72-.143-1.082-.86-1.082-2.15 0-.526.06-1.124.18-1.793.121-.67.253-1.362.398-2.08-.674.813-1.359 1.996-2.056 3.55a44.848 44.848 0 00-1.876 4.983 58.928 58.928 0 00-1.37 5.162c-.36 1.673-.541 3.011-.541 4.015 0 1.147.24 1.72.721 1.72s1.046-.394 1.695-1.182c.65-.789 1.287-1.829 1.912-3.12a44.89 44.89 0 001.803-4.337 35.498 35.498 0 001.37-4.84c-.24.048-.468.072-.685.072h-.469z"/></g></svg>