<svg width="32" height="32" fill="none" xmlns="http://www.w3.org/2000/svg"><path fill-rule="evenodd" clip-rule="evenodd" d="M26.5 9.486a8.595 8.595 0 01-2.474.678 4.31 4.31 0 001.893-2.382 8.566 8.566 0 01-2.736 1.044 4.308 4.308 0 00-7.34 3.93 12.227 12.227 0 01-8.881-4.504 4.306 4.306 0 00-.583 2.169c0 1.493.76 2.812 1.917 3.585a4.307 4.307 0 01-1.953-.537v.053a4.31 4.31 0 003.458 4.224c-.37.102-.753.153-1.137.152-.277 0-.548-.026-.81-.077a4.308 4.308 0 004.025 2.99A8.645 8.645 0 015.5 22.596a12.212 12.212 0 006.604 1.935c7.926 0 12.259-6.564 12.259-12.258 0-.187-.004-.374-.013-.557a8.748 8.748 0 002.15-2.23" fill="#FEFEFE"/></svg>